<svg xmlns="http://www.w3.org/2000/svg" viewBox="0 0 746 746" width="746" height="746">
  <defs>
    <clipPath id="inner-frame">
      <path d="M 287 144 L 459 144 L 480 165 L 480 581 L 459 602 L 287 602 L 265 581 L 265 165 Z"/>
    </clipPath>
  </defs>

  <g clip-path="url(#inner-frame)">

    <!-- Olive sun/moon -->
    <circle cx="431" cy="232" r="12" fill="#6C6A4D"/>

    <!-- Dotted vertical airstream above island -->
    <g fill="#1c1c18">
      <circle cx="372" cy="244" r="1.4"/>
      <circle cx="372" cy="256" r="1.6"/>
      <circle cx="372" cy="268" r="1.7"/>
      <circle cx="372" cy="280" r="1.7"/>
      <circle cx="372" cy="292" r="1.8"/>
      <circle cx="372" cy="304" r="1.9"/>
      <circle cx="372" cy="316" r="2.0"/>
      <circle cx="372" cy="328" r="2.0"/>
      <circle cx="372" cy="340" r="2.1"/>
      <circle cx="372" cy="352" r="2.2"/>
      <circle cx="372" cy="364" r="2.3"/>
      <circle cx="372" cy="376" r="2.4"/>
    </g>

    <!-- Two vertical spires/poles above the island -->
    <line x1="357" y1="378" x2="357" y2="425" stroke="#1c1c18" stroke-width="2.4"/>
    <line x1="390" y1="378" x2="390" y2="425" stroke="#1c1c18" stroke-width="2.4"/>

    <!-- ===== FLOATING ISLAND (rocky chunk, point at bottom) ===== -->
    <!-- Mid-gray rocky base -->
    <path d="M 308 425
             L 438 425
             C 442 432, 444 440, 440 448
             C 438 458, 432 466, 425 472
             C 418 480, 408 486, 398 490
             C 390 494, 384 498, 378 502
             L 372 510
             L 366 502
             C 360 498, 354 494, 348 490
             C 338 486, 328 480, 320 472
             C 312 466, 308 458, 306 448
             C 304 440, 304 432, 308 425 Z"
          fill="#3a3a35"/>

    <!-- Darker shadow underside -->
    <path d="M 318 460
             C 326 472, 340 484, 358 494
             L 372 510
             L 386 494
             C 404 484, 418 472, 426 460
             C 422 470, 414 480, 402 488
             C 388 496, 378 502, 372 510
             C 366 502, 356 496, 342 488
             C 330 480, 322 470, 318 460 Z"
          fill="#15140f"/>

    <!-- Rough top edge (rocky bumps) -->
    <path d="M 308 425
             C 320 421, 328 422, 336 425
             C 344 421, 354 421, 360 425
             C 368 421, 378 421, 386 425
             C 394 422, 404 422, 412 425
             C 422 421, 432 422, 438 425
             L 438 432
             C 422 432, 410 432, 396 432
             C 380 432, 364 432, 348 432
             C 332 432, 320 432, 308 432 Z"
          fill="#1c1c18"/>

    <!-- Texture speckles on rocky body -->
    <g fill="#0c0c08" opacity="0.7">
      <circle cx="320" cy="438" r="1.2"/>
      <circle cx="335" cy="445" r="1.4"/>
      <circle cx="350" cy="442" r="1.1"/>
      <circle cx="365" cy="448" r="1.3"/>
      <circle cx="380" cy="445" r="1.2"/>
      <circle cx="395" cy="450" r="1.3"/>
      <circle cx="410" cy="444" r="1.2"/>
      <circle cx="425" cy="448" r="1.3"/>
      <circle cx="328" cy="460" r="1.3"/>
      <circle cx="345" cy="465" r="1.2"/>
      <circle cx="362" cy="468" r="1.2"/>
      <circle cx="382" cy="468" r="1.3"/>
      <circle cx="400" cy="465" r="1.2"/>
      <circle cx="418" cy="460" r="1.3"/>
      <circle cx="354" cy="480" r="1.1"/>
      <circle cx="372" cy="484" r="1.2"/>
      <circle cx="390" cy="480" r="1.1"/>
    </g>

    <!-- Dotted airstream below island (smaller, dispersing) -->
    <g fill="#1c1c18">
      <circle cx="372" cy="520" r="2.0"/>
      <circle cx="372" cy="532" r="1.8"/>
      <circle cx="372" cy="544" r="1.6"/>
      <circle cx="372" cy="556" r="1.5"/>
      <circle cx="372" cy="568" r="1.3"/>
      <circle cx="372" cy="578" r="1.1"/>
      <!-- side branch streams -->
      <circle cx="362" cy="528" r="1.3"/>
      <circle cx="382" cy="528" r="1.3"/>
      <circle cx="358" cy="540" r="1.2"/>
      <circle cx="386" cy="540" r="1.2"/>
      <circle cx="354" cy="552" r="1.1"/>
      <circle cx="390" cy="552" r="1.1"/>
      <circle cx="352" cy="564" r="1.0"/>
      <circle cx="392" cy="564" r="1.0"/>
    </g>
  </g>

  <!-- Outer frame -->
  <path d="M 282 131 L 463 131 L 493 161 L 493 585 L 463 615 L 282 615 L 252 585 L 252 161 Z"
        fill="none" stroke="#000" stroke-width="3.5" stroke-linejoin="miter"/>
  <!-- Inner thin frame -->
  <path d="M 287 144 L 459 144 L 480 165 L 480 581 L 459 602 L 287 602 L 265 581 L 265 165 Z"
        fill="none" stroke="#000" stroke-width="1.2" stroke-linejoin="miter"/>
</svg>
